# AST/ASF file generated using VICON BodyLanguage
# -----------------------------------------------
:version 1.10
:name VICON
:units
  mass 1.0
  length 0.45
  angle deg
:documentation
   .ast/.asf automatically generated from VICON data using
   VICON BodyBuilder and BodyLanguage model FoxedUp or BRILLIANT.MOD
:root
   order TX TY TZ RX RY RZ
   axis XYZ
   position 0 0 0  
   orientation 0 0 0 
:bonedata
  begin
     id 1 
     name lhipjoint
     direction 0.584852 -0.759097 0.285867 
     length 2.43633 
     axis 0 0 0  XYZ
  end
  begin
     id 2 
     name lfemur
     direction 0.34202 -0.939693 0  
     length 7.14704  
     axis 0 0 20  XYZ
    dof rx ry rz
    limits (-160.0 20.0)
           (-70.0 70.0)
           (-60.0 70.0)
  end
  begin
     id 3 
     name ltibia
     direction 0.342022 -0.939692 0   
     length 7.68483   
     axis 0 0 20   XYZ
    dof rx
    limits (-10.0 170.0)
  end
  begin
     id 4 
     name lfoot
     direction 0.0999605 -0.274639 0.956337   
     length 2.40452   
     axis -90 7.62852e-016 20   XYZ
    dof rx rz
    limits (-45.0 90.0)
           (-70.0 20.0)
  end
  begin
     id 5 
     name ltoes
     direction 1.53468e-011 -4.21881e-011 1   
     length 1.19837   
     axis -90 7.62852e-016 20   XYZ
    dof rx
    limits (-90.0 20.0)
  end
  begin
     id 6 
     name rhipjoint
     direction -0.569886 -0.769002 0.289597   
     length 2.40495  
     axis 0 0 0  XYZ 
  end
  begin
     id 7 
     name rfemur
     direction -0.34202 -0.939693 0   
     length 7.45086   
     axis 0 0 -20   XYZ
    dof rx ry rz
    limits (-160.0 20.0)
           (-70.0 70.0)
           (-70.0 60.0)
  end
  begin
     id 8 
     name rtibia
     direction -0.34202 -0.939693 0   
     length 7.76831   
     axis 0 0 -20   XYZ
    dof rx
    limits (-10.0 170.0)
 end
 begin
     id 9 
     name rfoot
     direction -0.0798572 -0.219406 0.97236   
     length 2.35911  
     axis -90 -7.62852e-016 -20   XYZ
    dof rx rz
    limits (-45.0 90.0)
           (-20.0 70.0)
  end
  begin
     id 10 
     name rtoes
     direction -1.53469e-011 -4.21728e-011 1   
     length 1.18261   
     axis -90 -7.62852e-016 -20   XYZ
    dof rx
    limits (-90.0 20.0)
  end
  begin
     id 11 
     name lowerback
     direction 0.0242088 0.999437 0.0232389   
     length 2.1561   
     axis 0 0 0   XYZ
    dof rx ry rz
    limits (-20.0 45.0)
           (-30.0 30.0)
           (-30.0 30.0)
  end
  begin
     id 12 
     name upperback
     direction -0.0356893 0.999013 -0.0264323   
     length 2.14431   
     axis 0 0 0   XYZ
    dof rx ry rz
    limits (-20.0 45.0)
           (-30.0 30.0)
           (-30.0 30.0)
  end
  begin
     id 13 
     name thorax
     direction -0.0472163 0.998194 -0.0371284   
     length 2.16169   
     axis 0 0 0   XYZ
    dof rx ry rz
    limits (-20.0 45.0)
           (-30.0 30.0)
           (-30.0 30.0)
  end
  begin
     id 14 
     name lowerneck
     direction 0.00863244 0.999921 0.00911972   
     length 1.58651   
     axis 0 0 0   XYZ
    dof rx ry rz
    limits (-20.0 45.0)
           (-30.0 30.0)
           (-30.0 30.0)
  end
  begin
     id 15 
     name upperneck
     direction 0.149523 0.979068 -0.138086   
     length 1.57486   
     axis 0 0 0   XYZ
    dof rx ry rz
    limits (-20.0 45.0)
           (-30.0 30.0)
           (-30.0 30.0)
  end
  begin
     id 16
     name head
     direction 0.0445219 0.997708 -0.0509576  
     length 1.6019  
     axis 0 0 0   XYZ
    dof rx ry rz
    limits (-20.0 45.0)
           (-30.0 30.0)
           (-30.0 30.0)
  end
  begin
     id 17 
     name lclavicle
     direction 0.911271 0.381667 -0.154644  
     length 3.80848  
     axis 0 0 0   XYZ
    dof ry rz
    limits (-20.0 10.0)
           (0.0 20.0)
  end
  begin
     id 18 
     name lhumerus
     direction 1 -4.49003e-011 2.1308e-027   
     length 5.19069   
     axis 180 -30 -90   XYZ
    dof rx ry rz
    limits (-60.0 90.0)
           (-90.0 90.0)
           (-90.0 90.0)
  end
  begin
     id 19
     name lradius
     direction 1 -4.48914e-011 4.01554e-027   
     length 3.30016   
     axis 180 -30 -90   XYZ
    dof rx
    limits (-10.0 170.0)
  end
  begin
     id 20
     name lwrist
     direction 1 -4.49003e-011 1.1934e-026   
     length 1.65008   
     axis -8.46377e-015 90 90   XYZ
    dof ry
    limits (-180.0 0.0)
 end
  begin
     id 21 
     name lhand
     direction 1 -4.49034e-011 2.38659e-026   
     length 0.707698   
     axis -1.52313e-014 90 90   XYZ
    dof rx rz
    limits (-90.0 90.0)
           (-45.0 45.0)
  end
  begin
     id 22 
     name lfingers
     direction 1 -4.48691e-011 4.77775e-026   
     length 0.570564   
     axis -3.04623e-014 90 90   XYZ
    dof rx
    limits (0.0 90.0)
  end
  begin
     id 23
     name lthumb
     direction 0.707107 -6.34832e-011 0.707107   
     length 0.819219   
     axis -90 45 -1.62303e-014   XYZ
    dof rx rz
    limits (-45.0 45.0)
           (-45.0 45.0)
  end
  begin
     id 24 
     name rclavicle
     direction -0.815579 0.573708 -0.0754329   
     length 3.54371  
     axis 0 0 0   XYZ 
    dof ry rz
    limits (-10.0 20.0)
           (-20.0 0.0)
  end
  begin
     id 25 
     name rhumerus
     direction -1 -4.48956e-011 3.05351e-028  
     length 5.23924   
     axis 180 30 90   XYZ
    dof rx ry rz
    limits (-90.0 60.0)
           (-90.0 90.0)
           (-90.0 90.0)
  end
  begin
     id 26 
     name rradius
     direction -1 -4.49013e-011 3.53849e-027   
     length 3.32953   
     axis 180 30 90   XYZ
    dof rx
    limits (-10.0 170.0)
  end
  begin
     id 27 
     name rwrist
     direction -1 -4.48901e-011 1.19374e-026   
     length 1.66477   
     axis -8.46377e-015 -90 -90   XYZ
    dof ry
    limits (-180.0 0.0)
  end
  begin
     id 28
     name rhand
     direction -1 -4.48877e-011 2.38764e-026   
     length 0.607414   
     axis -1.52313e-014 -90 -90   XYZ
    dof rx rz
    limits (-90.0 90.0)
           (-45.0 45.0)
  end
  begin
     id 29
     name rfingers
     direction -1 -4.48882e-011 4.77521e-026   
     length 0.489712   
     axis -3.04623e-014 -90 -90   XYZ
    dof rx
    limits (0.0 90.0)
  end
  begin
     id 30
     name rthumb
     direction -0.707107 -6.34974e-011 0.707107   
     length 0.703132   
     axis -90 -45 1.62303e-014   XYZ
    dof rx rz
    limits (-45.0 45.0)
           (-45.0 45.0)
  end
:hierarchy
  begin
    root lhipjoint rhipjoint lowerback
    lhipjoint lfemur
    lfemur ltibia
    ltibia lfoot
    lfoot ltoes
    rhipjoint rfemur
    rfemur rtibia
    rtibia rfoot
    rfoot rtoes
    lowerback upperback
    upperback thorax
    thorax lowerneck lclavicle rclavicle
    lowerneck upperneck
    upperneck head
    lclavicle lhumerus
    lhumerus lradius
    lradius lwrist
    lwrist lhand lthumb
    lhand lfingers
    rclavicle rhumerus
    rhumerus rradius
    rradius rwrist
    rwrist rhand rthumb
    rhand rfingers
  end

#!OML:ASF E:\VariousWalksJay\Project 1\Capture day 1\Session 1\Actor2.ASF
:FULLY-SPECIFIED
:DEGREES
240
root 26.2032 16.7078 -27.335 -8.46027 -36.0351 7.13455
lowerback 0.296185 -3.32211 -3.272
upperback 8.77471 -4.04057 -6.42376
thorax 8.86851 -2.02358 -5.32352
lowerneck 8.31912 1.03773 -1.07628
upperneck 14.651 0.323587 6.74652
head 3.32018 0.149542 2.41847
rclavicle 1.74533e-013 3.97569e-014
rhumerus -43.4857 21.6217 -92.7397
rradius 68.4206
rwrist -1.71839
rhand -23.9757 -4.79266
rfingers 7.12502
rthumb 2.5008 -34.7577
lclavicle 1.74533e-013 3.97569e-014
lhumerus 5.43387 -28.3736 73.1621
lradius 73.651
lwrist 68.1761
lhand -35.3056 17.8895
lfingers 7.12502
lthumb -8.43974 47.7008
rfemur -60.2509 3.52281 15.3442
rtibia 58.7489
rfoot -22.6885 -13.0815
rtoes -18.6899
lfemur 1.13192 17.583 -32.0101
ltibia 31.0231
lfoot -29.6441 10.8258
ltoes -4.90075
241
root 26.1634 16.7076 -27.2531 -8.47654 -35.9799 7.20314
lowerback -0.0456762 -3.56421 -3.41932
upperback 8.45147 -4.35015 -6.36985
thorax 8.70749 -2.18821 -5.20523
lowerneck 8.2555 1.24333 -1.32877
upperneck 15.1606 0.552527 6.64905
head 3.50107 0.248911 2.44224
rclavicle -1.70955e-014 2.06736e-014
rhumerus -43.9528 22.2859 -92.8547
rradius 68.6381
rwrist -1.79618
rhand -24.0044 -5.03469
rfingers 7.12502
rthumb 2.4731 -35.0001
lclavicle -1.70955e-014 2.06736e-014
lhumerus 4.97366 -27.9027 73.2515
lradius 73.3859
lwrist 68.1639
lhand -35.324 17.8696
lfingers 7.12502
lthumb -8.45746 47.6802
rfemur -59.7519 3.50686 15.408
rtibia 57.4832
rfoot -22.6683 -12.9908
rtoes -18.8332
lfemur 1.77477 17.664 -31.9966
ltibia 30.4506
lfoot -29.6075 10.6408
ltoes -5.03945
242
root 26.1227 16.707 -27.1694 -8.47392 -35.955 7.25921
lowerback -0.411023 -3.72556 -3.47939
upperback 8.16559 -4.54944 -6.35774
thorax 8.6007 -2.2894 -5.18013
lowerneck 8.12373 1.36709 -1.4267
upperneck 15.6564 0.680913 6.57465
head 3.6959 0.307829 2.44734
rclavicle -1.12115e-013 -3.65764e-014
rhumerus -44.3417 22.6689 -92.9558
rradius 68.8528
rwrist -1.8469
rhand -24.025 -5.2489
rfingers 7.12502
rthumb 2.45321 -35.2145
lclavicle -1.12115e-013 -3.65764e-014
lhumerus 4.67603 -27.6632 73.2465
lradius 73.1109
lwrist 68.1649
lhand -35.2698 18.0254
lfingers 7.12502
lthumb -8.40511 47.8381
rfemur -59.2368 3.51141 15.4904
rtibia 56.2123
rfoot -22.6371 -12.8834
rtoes -18.9937
lfemur 2.40533 17.7598 -31.9731
ltibia 29.8855
lfoot -29.5754 10.4609
ltoes -5.18745
243
root 26.0812 16.706 -27.085 -8.44645 -35.9515 7.30918
lowerback -0.797236 -3.81271 -3.46589
upperback 7.91354 -4.64728 -6.39329
thorax 8.54059 -2.33305 -5.24591
lowerneck 7.90506 1.41254 -1.35591
upperneck 16.1555 0.712334 6.515
head 3.91465 0.330191 2.42868
rclavicle -5.82439e-014 2.38542e-014
rhumerus -44.6518 22.7829 -93.0533
rradius 69.062
rwrist -1.85999
rhand -24.0403 -5.45131
rfingers 7.12502
rthumb 2.43844 -35.4171
lclavicle -5.82439e-014 2.38542e-014
lhumerus 4.52084 -27.6419 73.1507
lradius 72.8415
lwrist 68.1785
lhand -35.2236 18.1829
lfingers 7.12502
lthumb -8.36055 47.9975
rfemur -58.7224 3.52541 15.5879
rtibia 54.9457
rfoot -22.6009 -12.758
rtoes -19.2007
lfemur 3.01161 17.8659 -31.9469
ltibia 29.3252
lfoot -29.5399 10.2836
ltoes -5.34512
244
root 26.0389 16.7046 -26.9998 -8.39728 -35.9538 7.35497
lowerback -1.18027 -3.9027 -3.4607
upperback 7.64951 -4.75022 -6.41345
thorax 8.46725 -2.3806 -5.29035
lowerneck 7.6771 1.46457 -1.29208
upperneck 16.6724 0.752523 6.44193
head 4.14374 0.355948 2.40773
rclavicle -1.11319e-013 0
rhumerus -44.9605 22.9127 -93.1382
rradius 69.2695
rwrist -1.8632
rhand -24.0392 -5.62103
rfingers 7.12502
rthumb 2.43946 -35.5868
lclavicle -1.11319e-013 0
lhumerus 4.33599 -27.6093 73.0844
lradius 72.5828
lwrist 68.1891
lhand -35.1914 18.2854
lfingers 7.12502
lthumb -8.32948 48.1012
rfemur -58.2067 3.53576 15.6963
rtibia 53.691
rfoot -22.5541 -12.6217
rtoes -19.385
lfemur 3.59789 17.9738 -31.9191
ltibia 28.7676
lfoot -29.4986 10.1062
ltoes -5.51525
245
root 25.996 16.7026 -26.9137 -8.33215 -35.9713 7.40059
lowerback -1.55777 -4.00449 -3.46902
upperback 7.36893 -4.8706 -6.4143
thorax 8.37444 -2.43864 -5.30675
lowerneck 7.46841 1.53382 -1.26739
upperneck 17.1912 0.815255 6.35983
head 4.37155 0.389161 2.39115
rclavicle -6.36111e-014 8.90555e-014
rhumerus -45.2786 23.1009 -93.2164
rradius 69.477
rwrist -1.85535
rhand -24.0127 -5.7442
rfingers 7.12502
rthumb 2.46511 -35.7097
lclavicle -6.36111e-014 8.90555e-014
lhumerus 4.0852 -27.5179 73.0699
lradius 72.3421
lwrist 68.1945
lhand -35.1846 18.3256
lfingers 7.12502
lthumb -8.32289 48.1416
rfemur -57.691 3.54204 15.8193
rtibia 52.4542
rfoot -22.4893 -12.4718
rtoes -19.5445
lfemur 4.16641 18.0847 -31.8945
ltibia 28.2112
lfoot -29.4521 9.93609
ltoes -5.69063
246
root 25.9524 16.7001 -26.827 -8.24955 -36.0002 7.44253
lowerback -1.92139 -4.12914 -3.49995
upperback 7.06756 -5.02387 -6.38682
thorax 8.25362 -2.51567 -5.28062
lowerneck 7.03241 1.63125 -1.35562
upperneck 18.2772 0.854734 6.46261
head 4.28263 0.443517 2.23153
rclavicle -2.14687e-014 1.59028e-015
rhumerus -45.6122 23.3845 -93.2895
rradius 69.6826
rwrist -1.83635
rhand -23.9692 -5.81306
rfingers 7.12502
rthumb 2.5071 -35.7781
lclavicle -2.14687e-014 1.59028e-015
lhumerus 3.74866 -27.3364 73.1165
lradius 72.1225
lwrist 68.1911
lhand -35.1493 18.3846
lfingers 7.12502
lthumb -8.28885 48.202
rfemur -57.1763 3.54069 15.9623
rtibia 51.2405
rfoot -22.4043 -12.3178
rtoes -19.674
lfemur 4.7163 18.2001 -31.8677
ltibia 27.6606
lfoot -29.4014 9.77231
ltoes -5.87765
247
root 25.908 16.6969 -26.7389 -8.16056 -36.0541 7.48293
lowerback -2.28354 -4.23608 -3.50508
upperback 6.77281 -5.1546 -6.36571
thorax 8.13832 -2.57969 -5.27523
lowerneck 6.81527 1.71565 -1.36583
upperneck 18.8327 0.937981 6.36849
head 4.48636 0.484637 2.21285
rclavicle 2.62396e-014 6.36111e-015
rhumerus -45.921 23.6279 -93.3595
rradius 69.8836
rwrist -1.7998
rhand -23.9211 -5.86937
rfingers 7.12502
rthumb 2.55359 -35.8338
lclavicle 2.62396e-014 6.36111e-015
lhumerus 3.43281 -27.1868 73.1464
lradius 71.9135
lwrist 68.2142
lhand -35.1253 18.412
lfingers 7.12502
lthumb -8.26568 48.2303
rfemur -56.6539 3.53369 16.1323
rtibia 50.0521
rfoot -22.2885 -12.1566
rtoes -19.7771
lfemur 5.26053 18.3232 -31.8415
ltibia 27.1116
lfoot -29.3515 9.62469
ltoes -6.07609
248
root 25.8633 16.693 -26.6517 -8.04523 -36.0889 7.52062
lowerback -2.63454 -4.33529 -3.50419
upperback 6.48355 -5.27567 -6.35218
thorax 8.02241 -2.63846 -5.28075
lowerneck 6.57752 1.78508 -1.33421
upperneck 19.3714 1.00532 6.27055
head 4.69028 0.520318 2.18608
rclavicle -5.56597e-015 -1.59028e-014
rhumerus -46.1949 23.8116 -93.4272
rradius 70.082
rwrist -1.74987
rhand -23.8689 -5.8945
rfingers 7.12502
rthumb 2.60397 -35.8583
lclavicle -5.56597e-015 -1.59028e-014
lhumerus 3.1502 -27.078 73.1479
lradius 71.7209
lwrist 68.2667
lhand -35.1118 18.4307
lfingers 7.12502
lthumb -8.25269 48.2496
rfemur -56.1452 3.48832 16.3211
rtibia 48.8922
rfoot -22.1649 -12.0005
rtoes -19.842
lfemur 5.77474 18.4304 -31.8157
ltibia 26.5667
lfoot -29.2873 9.47056
ltoes -6.28046
249
root 25.818 16.6888 -26.5631 -7.91826 -36.1388 7.5473
lowerback -2.98446 -4.41625 -3.46657
upperback 6.20454 -5.37432 -6.34585
thorax 7.9145 -2.68382 -5.31384
lowerneck 6.3398 1.83879 -1.27923
upperneck 19.8844 1.05503 6.17039
head 4.88818 0.548313 2.15439
rclavicle -5.96354e-016 3.33958e-014
rhumerus -46.4473 23.9463 -93.4896
rradius 70.2836
rwrist -1.6969
rhand -23.8001 -5.90885
rfingers 7.12502
rthumb 2.67043 -35.8719
lclavicle -5.96354e-016 3.33958e-014
lhumerus 2.90691 -27.0114 73.1236
lradius 71.5322
lwrist 68.355
lhand -35.021 18.611
lfingers 7.12502
lthumb -8.16508 48.4333
rfemur -55.6285 3.42576 16.5429
rtibia 47.7629
rfoot -22.0294 -11.841
rtoes -19.9003
lfemur 6.28588 18.5295 -31.7858
ltibia 26.0219
lfoot -29.2246 9.32954
ltoes -6.48133
